<?xml version="1.0" encoding="UTF-8"?>
<svg id="Layer_1" xmlns="http://www.w3.org/2000/svg" version="1.1" xmlns:xlink="http://www.w3.org/1999/xlink" viewBox="0 0 62 62">
  <!-- Generator: Adobe Illustrator 29.0.0, SVG Export Plug-In . SVG Version: 2.1.0 Build 186)  -->
  <defs>
    <style>
      .st0 {
        fill: #fff;
      }

      .st1 {
        fill: none;
      }

      .st2 {
        fill: #3a78c9;
      }

      .st3 {
        clip-path: url(#clippath-1);
      }

      .st4 {
        clip-path: url(#clippath);
      }
    </style>
    <clipPath id="clippath">
      <rect class="st1" width="62" height="62" rx="15" ry="15"/>
    </clipPath>
    <clipPath id="clippath-1">
      <rect class="st1" x="6.8" y="3" width="52" height="52" transform="translate(-10.9 31.7) rotate(-45)"/>
    </clipPath>
  </defs>
  <g class="st4">
    <g>
      <rect class="st0" width="62" height="62" rx="15" ry="15"/>
      <g class="st3">
        <path class="st2" d="M47.4,33.8c-1.2-.5-2.5-.6-3.8-.6-.8-1.3-1.7-2.7-2.7-3.8l-2.3-.3c.5,1.4,1.2,2.8,1.5,4.3h-7.9l5-11.9c4,0,8.7.5,11.6-2.9,3.7-4.3.9-10.6-4.6-11.1-4.1-.4-6.8,1.4-8.7,4.9-.8,1.5-1.6,3.1-2.1,4.7h-9.7c.3-1.5,1-2.9,1.6-4.3l-2.2.2c-1.2,1.1-2,2.6-2.9,3.9-1.3,0-2.6,0-3.8.6-2.1.9-2,2.6,0,3.4,1.2.5,2.5.6,3.8.6.5.8.9,1.6,1.5,2.3.2.3,1,1.4,1.2,1.5.6.2,1.6.2,2.3.4-.5-1.4-1.2-2.8-1.5-4.3,2.6,0,5.3,0,7.9,0l-4.8,11.9c-4.7,0-10.4-.6-12.8,4.3-2.2,4.4,1,9.3,5.7,9.7,4,.3,6.7-1.5,8.6-4.9.8-1.4,1.6-3.1,2.1-4.6h9.7c-.3,1.5-1,2.8-1.6,4.3l2.2-.2c1.2-1.1,2-2.6,2.9-3.9,1.3,0,2.6,0,3.8-.6,2.1-.9,2-2.5,0-3.4ZM39.3,15.2c.8-1.3,1.8-2.8,3.4-3.2,3.4-.8,4.4,3.6,1.2,4.7-.3.1-1.2.4-1.5.4h-4c0,0,.8-1.7.9-1.9ZM24.7,39.7c-.8,1.3-1.8,2.9-3.4,3.2-3.5.7-4.2-3.8-1-4.8.3,0,1.1-.3,1.3-.3h4.1c0,0-.8,1.7-.9,1.9Z"/>
      </g>
    </g>
  </g>
</svg>