<?xml version="1.0" encoding="UTF-8"?>
<svg id="Layer_1" xmlns="http://www.w3.org/2000/svg" version="1.1" viewBox="0 0 193 52">
  <!-- Generator: Adobe Illustrator 29.0.0, SVG Export Plug-In . SVG Version: 2.1.0 Build 186)  -->
  <defs>
    <style>
      .st0 {
        fill: #3a78c9;
      }
    </style>
  </defs>
  <path class="st0" d="M39.9,41.2c1.9-4.8,3.9-9.5,5.8-14.3h-.9c-2,0-2.9-.9-2.9-2.6s.4-1.9,1.2-2.6c.8-.7,1.8-1.1,2.9-1.1h2.2l5.3-12.8c.6-1.4,1.2-2.3,1.7-2.7.6-.4,1.6-.6,3.2-.6h13.5c2.4,0,3.6.8,3.6,2.5s-.4,2-1.2,2.7c-.8.7-1.8,1.1-2.9,1.1h-11.9l-4,9.8h4c2,0,2.9.8,2.9,2.5s-.4,1.9-1.2,2.6c-.8.7-1.8,1.1-2.9,1.1h-5.3l-5.8,14.3h18.8c2,0,2.9.8,2.9,2.5s-.4,2-1.2,2.7c-.8.7-1.8,1.1-2.9,1.1h-20.1c-.2,0-2.9-.2-4.2-2.5-1-1.7-.7-3.4-.6-3.8Z"/>
  <path class="st0" d="M86.1,29.3h2.9c2.2,0,3.3.8,3.3,2.3s-.4,1.9-1.2,2.5c-.8.6-1.9.9-3.2.9h-3.4c-1.5,0-2.5-.6-3.1-1.8-1.3,1.2-2.6,1.8-3.8,1.8h-3c-1.9,0-3.5-.7-4.6-2.1-1.2-1.4-1.8-3.2-1.8-5.4,0-3.4,1.2-6.3,3.5-9,2.3-2.6,4.9-4,7.8-4s3.9.8,4.9,2.3c.9-1.3,2-2,3.4-2s1.4.2,1.9.7c.5.5.8,1.1.8,1.8s-.1,1.1-.4,1.8l-.3.7-3.8,9.3ZM76.6,29.4h.7c1.4,0,2.4-.6,2.9-1.8l1.8-4.5c.2-.6.4-1.1.4-1.5s-.2-.9-.7-1.2c-.5-.3-1-.5-1.7-.5-1.3,0-2.5.7-3.7,2.2-1.2,1.5-1.8,3-1.8,4.6s.7,2.7,2.2,2.7Z"/>
  <path class="st0" d="M104.6,22.1l-.5,1.2c-.8,1.7-1.9,2.6-3.3,2.6s-1.4-.2-1.9-.7c-.6-.5-.9-1.1-.9-1.7s.3-1.4.8-2.4l3.5-7.1c.9-1.7,1.9-2.5,3.2-2.5s1.3.2,1.8.7c.5.4.7,1,.7,1.6s0,.5-.2,1c0,.4-.1.7-.1,1,0,1.1.4,2.2,1.2,3.4l1.5,2.1c1.5,2.1,2.3,4.2,2.3,6.1s-.8,4-2.5,5.5c-1.6,1.5-3.7,2.2-6.1,2.2h-5.5c-2.2,0-3.3-.8-3.3-2.3s.4-1.9,1.2-2.5c.8-.6,1.9-.9,3.2-.9h3c2.4,0,3.6-.9,3.6-2.6s-.2-1.4-.7-2.3l-1.2-2.3Z"/>
  <path class="st0" d="M151.7,28.9c-.2,0-.5,0-.7,0-.9-1.5-2.2-3.4-3.5-5l-3.1-.5s1.5,3,2.1,5.6c0,0-.1,0-.2,0h-10.1l6.5-16,.3-.7c.3-.7.4-1.2.4-1.8,0-.7-.3-1.3-.8-1.8-.5-.5-1.2-.7-1.9-.7-1.8,0-3.1,1-3.9,3l-.3.7-3.5,8.6c-.2.6-.8,1.1-1.6,1.6-.8.5-1.7.7-2.5.7s-1.7-.4-1.6-1.3c0-.3.2-1,.6-2l2.6-6.3c.5-1.1.7-2,.7-2.5,0-.8-.3-1.4-.8-1.9-.5-.5-1.2-.7-1.9-.7-1.8,0-3.1,1-3.9,3l-.3.7-2.9,7c-.8,1.8-1.1,3.2-1.1,4.2,0,1.5.6,2.8,1.7,3.7,1.2,1,2.7,1.4,4.5,1.4s2.3-.3,3.6-.8l-.8,1.9h-4.3c-3.6,0-6.3.4-8.2,1.3-1.6.8-2.9,1.9-3.9,3.4-1,1.5-1.5,3.1-1.5,4.8,0,2.5.9,4.6,2.7,6.2,1.8,1.7,4.1,2.5,6.7,2.5,4.4,0,7.7-2.2,10-6.5,1.3-2.5,2.2-4.5,2.7-6h12.4c0,0,.1,0,.2,0-.7,2.6-2.2,5.6-2.2,5.6l3.1-.4c1.4-1.6,2.7-3.6,3.7-5.1.2,0,.5,0,.7,0,3.4,0,6.2-1.3,6.2-3s-2.8-3-6.2-3ZM124.3,40c-1,1-2.1,1.5-3.4,1.5s-1.7-.3-2.2-.8c-.5-.5-.8-1.3-.8-2.1,0-2.5,2-3.8,6-3.8h3.7c-1.2,2.5-2.3,4.2-3.3,5.2Z"/>
  <g>
    <path class="st0" d="M77.7,38.9v.9h-1.6v4.9h-1.2v-4.9h-1.6v-.9h4.3Z"/>
    <path class="st0" d="M80.3,40.3c.2-.1.5-.2.8-.2v1.2h-.3c-.4,0-.6,0-.8.3-.2.2-.3.5-.3.9v2.3h-1.2v-4.6h1.2v.7c.2-.2.3-.4.6-.6Z"/>
    <path class="st0" d="M81.9,41.2c.2-.4.4-.6.8-.8s.7-.3,1.1-.3.7,0,.9.2c.3.1.5.3.6.5v-.7h1.2v4.6h-1.2v-.7c-.2.2-.4.4-.6.5-.3.1-.6.2-.9.2s-.7-.1-1.1-.3-.6-.5-.8-.9c-.2-.4-.3-.8-.3-1.3s0-.9.3-1.3ZM85.1,41.7c-.1-.2-.3-.4-.5-.5s-.4-.2-.6-.2-.4,0-.6.2c-.2.1-.3.3-.4.5-.1.2-.2.4-.2.7s0,.5.2.7c.1.2.3.4.5.5.2.1.4.2.6.2s.4,0,.6-.2.3-.3.5-.5c.1-.2.2-.4.2-.7s0-.5-.2-.7Z"/>
    <path class="st0" d="M89.6,43.7l1.2-3.6h1.3l-1.7,4.6h-1.4l-1.7-4.6h1.3l1.2,3.6Z"/>
    <path class="st0" d="M97,42.8h-3.4c0,.3.1.6.4.8.2.2.5.3.8.3.4,0,.7-.2.9-.6h1.3c-.1.4-.4.8-.8,1.1-.4.3-.8.4-1.4.4s-.8,0-1.2-.3c-.4-.2-.6-.5-.8-.8-.2-.4-.3-.8-.3-1.3s0-.9.3-1.3c.2-.4.5-.6.8-.8.4-.2.8-.3,1.2-.3s.8,0,1.2.3.6.5.8.8c.2.3.3.8.3,1.2s0,.3,0,.5ZM95.8,42c0-.3-.1-.5-.3-.7-.2-.2-.5-.3-.8-.3s-.5,0-.7.3c-.2.2-.3.4-.4.7h2.2Z"/>
    <path class="st0" d="M99,38.6v6.2h-1.2v-6.2h1.2Z"/>
    <path class="st0" d="M100.9,44.6c-.3-.1-.5-.3-.7-.6-.2-.2-.3-.5-.3-.8h1.2c0,.2.1.3.3.4.2.1.3.2.6.2s.4,0,.5-.1c.1,0,.2-.2.2-.3s0-.3-.2-.3c-.2,0-.4-.2-.7-.2-.3,0-.6-.2-.9-.3-.2,0-.4-.2-.6-.4-.2-.2-.2-.4-.2-.7s0-.5.2-.7c.1-.2.4-.4.6-.5.3-.1.6-.2,1-.2.6,0,1,.1,1.3.4.3.3.5.7.5,1.1h-1.1c0-.2,0-.3-.2-.4s-.3-.2-.5-.2-.4,0-.5.1c-.1,0-.2.2-.2.3s0,.3.2.4c.2,0,.4.2.7.2.3,0,.6.2.8.3.2,0,.4.2.6.4.2.2.2.4.2.7,0,.3,0,.5-.2.7-.1.2-.4.4-.6.5s-.6.2-1,.2-.7,0-1-.2Z"/>
  </g>
</svg>